<svg width="513.245" height="55.281" viewBox="0 0 514 65" xmlns="http://www.w3.org/2000/svg">
    <g id="svgGroup" stroke-linecap="round" fill-rule="nonzero" font-size="9pt" stroke="#212121" stroke-width="1.5"
        fill="#ffffff" style="stroke:#212121;stroke-width:1.5;fill:#ffffff">
        <path
            d="M 313.257 54.537 L 310.254 54.537 L 290.588 5.099 L 290.405 5.099 Q 290.479 6.454 290.533 7.937 A 216.818 216.818 0 0 1 290.625 11.031 A 148.484 148.484 0 0 1 290.662 14.4 L 290.662 54.537 L 287.073 54.537 L 287.073 0.997 L 292.786 0.997 L 311.755 48.678 L 311.975 48.678 L 331.091 0.997 L 336.658 0.997 L 336.658 54.537 L 332.959 54.537 L 332.959 13.961 A 120.206 120.206 0 0 1 332.996 11.031 A 236.342 236.342 0 0 1 333.087 8.047 Q 333.142 6.563 333.215 5.172 L 332.996 5.172 L 313.257 54.537 Z M 387.305 52.743 L 387.305 49.081 A 30.722 30.722 0 0 0 393.384 51.278 A 27.838 27.838 0 0 0 400.232 52.12 A 20.292 20.292 0 0 0 406.794 51.232 A 8.12 8.12 0 0 0 409.094 50.033 A 6.819 6.819 0 0 0 411.804 44.32 A 5.828 5.828 0 0 0 410.468 40.383 Q 409.131 38.827 406.641 37.691 A 61.745 61.745 0 0 0 400.635 35.384 A 87.451 87.451 0 0 1 394.135 32.912 A 11.211 11.211 0 0 1 389.685 29.653 A 8.698 8.698 0 0 1 388.074 24.105 A 8.587 8.587 0 0 1 391.919 16.634 Q 395.764 13.961 402.246 13.961 Q 405.835 13.961 408.929 14.638 A 32.376 32.376 0 0 1 414.551 16.378 L 413.232 19.527 Q 410.962 18.465 407.996 17.806 A 27.274 27.274 0 0 0 402.063 17.147 A 15.552 15.552 0 0 0 395.213 18.441 A 8.614 8.614 0 0 0 394.446 18.868 A 5.595 5.595 0 0 0 391.699 23.922 A 5.733 5.733 0 0 0 393.018 27.932 Q 394.336 29.378 396.79 30.349 Q 399.243 31.319 402.612 32.491 A 80.364 80.364 0 0 1 409.039 35.018 A 12.915 12.915 0 0 1 413.745 38.424 A 8.534 8.534 0 0 1 415.503 44.1 A 10.217 10.217 0 0 1 413.727 50.161 A 10.886 10.886 0 0 1 408.545 53.969 A 23.465 23.465 0 0 1 400.314 55.269 A 37.901 37.901 0 0 1 400.159 55.27 A 33.886 33.886 0 0 1 392.761 54.537 Q 389.502 53.805 387.305 52.743 Z M 45.007 54.537 L 41.052 54.537 L 33.765 35.604 L 11.279 35.604 L 3.845 54.537 L 0 54.537 L 21.057 0.814 L 24.5 0.814 L 45.007 54.537 Z M 12.561 32.198 L 32.556 32.198 L 25.159 12.13 A 76.1 76.1 0 0 1 24.445 10.152 A 285.164 285.164 0 0 1 23.566 7.589 Q 23.108 6.234 22.668 5.025 Q 22.302 6.307 21.863 7.589 Q 21.423 8.871 21.021 10.061 Q 20.618 11.251 20.251 12.203 L 12.561 32.198 Z M 104.956 4.403 L 104.956 54.537 L 101.147 54.537 L 101.147 4.403 L 83.789 4.403 L 83.789 0.997 L 122.314 0.997 L 122.314 4.403 L 104.956 4.403 Z M 253.894 27.84 L 253.894 54.537 L 251.038 54.537 L 250.378 47.579 L 250.159 47.579 Q 248.877 49.813 247.046 51.553 A 13.01 13.01 0 0 1 242.56 54.281 A 18.599 18.599 0 0 1 236.096 55.27 A 15.362 15.362 0 0 1 229.523 53.988 Q 226.794 52.706 225.311 50.252 A 11.336 11.336 0 0 1 223.828 44.283 A 10.023 10.023 0 0 1 228.735 35.256 Q 233.643 32.162 242.834 31.759 L 250.232 31.393 L 250.232 28.5 A 17.156 17.156 0 0 0 249.191 21.987 A 7.344 7.344 0 0 0 247.815 19.784 Q 245.398 17.184 240.674 17.184 A 22.023 22.023 0 0 0 234.76 17.971 A 32.12 32.12 0 0 0 228.992 20.223 L 227.82 17.147 A 36.09 36.09 0 0 1 233.954 14.913 A 26.401 26.401 0 0 1 240.82 14.034 Q 247.375 14.034 250.635 17.33 A 12.079 12.079 0 0 1 253.69 24.478 A 26.003 26.003 0 0 1 253.894 27.84 Z M 250.195 38.204 L 250.195 34.286 L 243.237 34.579 A 33.918 33.918 0 0 0 235.178 35.809 A 15.687 15.687 0 0 0 231.702 37.289 A 7.654 7.654 0 0 0 227.747 44.32 A 7.185 7.185 0 0 0 230.109 50.106 A 9.82 9.82 0 0 0 236.682 52.12 Q 243.237 52.12 246.698 48.385 A 14.326 14.326 0 0 0 250.19 38.604 A 23.692 23.692 0 0 0 250.195 38.204 Z M 377.856 27.84 L 377.856 54.537 L 375 54.537 L 374.341 47.579 L 374.121 47.579 Q 372.839 49.813 371.008 51.553 A 13.01 13.01 0 0 1 366.522 54.281 A 18.599 18.599 0 0 1 360.059 55.27 A 15.362 15.362 0 0 1 353.485 53.988 Q 350.757 52.706 349.274 50.252 A 11.336 11.336 0 0 1 347.791 44.283 A 10.023 10.023 0 0 1 352.698 35.256 Q 357.605 32.162 366.797 31.759 L 374.194 31.393 L 374.194 28.5 A 17.156 17.156 0 0 0 373.153 21.987 A 7.344 7.344 0 0 0 371.777 19.784 Q 369.36 17.184 364.636 17.184 A 22.023 22.023 0 0 0 358.722 17.971 A 32.12 32.12 0 0 0 352.954 20.223 L 351.782 17.147 A 36.09 36.09 0 0 1 357.916 14.913 A 26.401 26.401 0 0 1 364.783 14.034 Q 371.338 14.034 374.597 17.33 A 12.079 12.079 0 0 1 377.653 24.478 A 26.003 26.003 0 0 1 377.856 27.84 Z M 374.158 38.204 L 374.158 34.286 L 367.2 34.579 A 33.918 33.918 0 0 0 359.14 35.809 A 15.687 15.687 0 0 0 355.664 37.289 A 7.654 7.654 0 0 0 351.709 44.32 A 7.185 7.185 0 0 0 354.071 50.106 A 9.82 9.82 0 0 0 360.645 52.12 Q 367.2 52.12 370.66 48.385 A 14.326 14.326 0 0 0 374.152 38.604 A 23.692 23.692 0 0 0 374.158 38.204 Z M 480.908 32.345 L 480.908 35.018 L 452.161 35.018 A 22.795 22.795 0 0 0 453.793 44.144 A 13.59 13.59 0 0 0 455.951 47.616 A 13.472 13.472 0 0 0 466.589 52.009 A 22.491 22.491 0 0 0 466.809 52.01 Q 470.508 52.01 473.236 51.406 A 33.05 33.05 0 0 0 479.297 49.337 L 479.297 52.743 Q 476.367 54.061 473.438 54.665 A 33.599 33.599 0 0 1 466.699 55.27 A 19.017 19.017 0 0 1 456.573 52.761 A 15.66 15.66 0 0 1 450.421 45.675 Q 448.352 41.097 448.352 34.981 Q 448.352 29.012 450.348 24.251 Q 452.344 19.491 456.207 16.726 Q 460.071 13.961 465.71 13.961 A 14.388 14.388 0 0 1 474.188 16.341 A 14.255 14.255 0 0 1 479.242 22.86 A 25.239 25.239 0 0 1 480.908 32.345 Z M 452.271 31.869 L 477.063 31.869 A 21.901 21.901 0 0 0 475.818 24.178 A 11.036 11.036 0 0 0 472.064 18.996 A 10.487 10.487 0 0 0 465.674 17.147 A 12.056 12.056 0 0 0 456.427 20.937 A 16.387 16.387 0 0 0 452.54 29.693 A 29.083 29.083 0 0 0 452.271 31.869 Z M 188.049 54.537 L 184.167 54.537 L 168.896 14.73 L 172.815 14.73 L 183.032 41.866 Q 183.984 44.32 184.735 46.572 A 88.501 88.501 0 0 1 185.999 50.655 L 186.182 50.655 A 452.154 452.154 0 0 1 187.518 46.554 A 116.476 116.476 0 0 1 189.185 41.866 L 199.402 14.73 L 203.357 14.73 L 188.049 54.537 Z M 442.126 51.168 L 442.126 54.244 A 21.132 21.132 0 0 1 439.38 54.958 A 17.982 17.982 0 0 1 435.901 55.27 A 11.258 11.258 0 0 1 430.298 54.006 A 7.916 7.916 0 0 1 426.929 50.161 A 16.417 16.417 0 0 1 425.793 43.587 L 425.793 17.806 L 419.861 17.806 L 419.861 15.609 L 425.757 14.474 L 427.039 5.099 L 429.492 5.099 L 429.492 14.73 L 441.907 14.73 L 441.907 17.806 L 429.492 17.806 L 429.492 43.368 A 12.024 12.024 0 0 0 430.734 49.32 A 6.276 6.276 0 0 0 431.085 49.868 Q 432.678 52.084 436.304 52.084 A 18.835 18.835 0 0 0 439.508 51.827 A 16.038 16.038 0 0 0 442.126 51.168 Z M 150.769 14.73 L 150.183 18.136 Q 148.975 17.806 147.729 17.641 A 20.41 20.41 0 0 0 145.056 17.477 A 11.508 11.508 0 0 0 140.021 18.539 A 10.393 10.393 0 0 0 136.267 21.578 Q 134.729 23.556 133.923 26.339 A 22.367 22.367 0 0 0 133.118 32.564 L 133.118 54.537 L 129.382 54.537 L 129.382 14.73 L 132.568 14.73 L 132.935 22.237 L 133.154 22.237 A 13.725 13.725 0 0 1 135.736 18.081 A 12.326 12.326 0 0 1 139.783 15.133 Q 142.163 14.034 145.203 14.034 A 22.765 22.765 0 0 1 148.169 14.217 A 19.609 19.609 0 0 1 150.769 14.73 Z M 513.245 14.73 L 512.659 18.136 Q 511.45 17.806 510.205 17.641 A 20.41 20.41 0 0 0 507.532 17.477 A 11.508 11.508 0 0 0 502.496 18.539 A 10.393 10.393 0 0 0 498.743 21.578 Q 497.205 23.556 496.399 26.339 A 22.367 22.367 0 0 0 495.593 32.564 L 495.593 54.537 L 491.858 54.537 L 491.858 14.73 L 495.044 14.73 L 495.41 22.237 L 495.63 22.237 A 13.725 13.725 0 0 1 498.212 18.081 A 12.326 12.326 0 0 1 502.258 15.133 Q 504.639 14.034 507.678 14.034 A 22.765 22.765 0 0 1 510.645 14.217 A 19.609 19.609 0 0 1 513.245 14.73 Z M 56.36 54.537 L 52.588 54.537 L 52.588 0.997 L 56.36 0.997 L 56.36 54.537 Z M 158.533 14.73 L 162.231 14.73 L 162.231 54.537 L 158.533 54.537 L 158.533 14.73 Z M 209.949 14.73 L 213.647 14.73 L 213.647 54.537 L 209.949 54.537 L 209.949 14.73 Z M 162.488 0.832 A 3.447 3.447 0 0 1 163.147 3.048 A 3.37 3.37 0 0 1 162.488 5.245 A 2.496 2.496 0 0 1 160.437 6.051 Q 159.119 6.051 158.459 5.245 A 3.37 3.37 0 0 1 157.8 3.048 A 3.447 3.447 0 0 1 158.459 0.832 Q 159.119 0.008 160.437 0.008 A 2.468 2.468 0 0 1 162.488 0.832 Z M 213.904 0.832 A 3.447 3.447 0 0 1 214.563 3.048 A 3.37 3.37 0 0 1 213.904 5.245 A 2.496 2.496 0 0 1 211.853 6.051 Q 210.535 6.051 209.875 5.245 A 3.37 3.37 0 0 1 209.216 3.048 A 3.447 3.447 0 0 1 209.875 0.832 Q 210.535 0.008 211.853 0.008 A 2.468 2.468 0 0 1 213.904 0.832 Z" />
    </g>
</svg>